<svg xmlns="http://www.w3.org/2000/svg" xmlns:xlink="http://www.w3.org/1999/xlink" width="24" height="24" viewBox="0 0 24 24">
  <defs>
    <clipPath id="clip-path">
      <rect id="Rectangle_98725" data-name="Rectangle 98725" width="24" height="24"/>
    </clipPath>
    <linearGradient id="linear-gradient" x2="1" y2="1" gradientUnits="objectBoundingBox">
      <stop offset="0" stop-color="#f6c789"/>
      <stop offset="1" stop-color="#ecb56e"/>
    </linearGradient>
    <filter id="Path_70399">
      <feOffset dy="3" input="SourceAlpha"/>
      <feGaussianBlur stdDeviation="3" result="blur"/>
      <feFlood flood-opacity="0.078" result="color"/>
      <feComposite operator="out" in="SourceGraphic" in2="blur"/>
      <feComposite operator="in" in="color"/>
      <feComposite operator="in" in2="SourceGraphic"/>
    </filter>
  </defs>
  <g id="货币_法币_印度" clip-path="url(#clip-path)">
    <g id="货币_法币_巴西" clip-path="url(#clip-path)">
      <g id="Group_86057" data-name="Group 86057" transform="translate(2.5 2.5)">
        <path id="Path_72530" data-name="Path 72530" d="M11,0A11,11,0,1,1,0,11,11,11,0,0,1,11,0Z" transform="translate(-1.5 -1.5)" fill="url(#linear-gradient)"/>
        <g data-type="innerShadowGroup">
          <path id="Path_70399-2" data-name="Path 70399" d="M9.5,0A9.5,9.5,0,1,1,0,9.5,9.5,9.5,0,0,1,9.5,0Z" fill="#e9a54d"/>
          <g transform="matrix(1, 0, 0, 1, -2.5, -2.5)" filter="url(#Path_70399)">
            <path id="Path_70399-3" data-name="Path 70399" d="M9.5,0A9.5,9.5,0,1,1,0,9.5,9.5,9.5,0,0,1,9.5,0Z" transform="translate(2.5 2.5)" fill="#fff"/>
          </g>
        </g>
      </g>
    </g>
    <g id="noun-indian-rupee-807710" transform="translate(-67.279 -27.143)">
      <path id="Union_258" data-name="Union 258" d="M4.443,12.52l-.006-.006L.168,6.91a.8.8,0,0,1-.08-.852v-.01a.846.846,0,0,1,.729-.439H2.291A2,2,0,0,0,4.1,4.434H.816a.814.814,0,1,1,0-1.629H4.1A2,2,0,0,0,2.291,1.631H.816A.815.815,0,0,1,.816,0H7.4a.821.821,0,0,1,.816.818.818.818,0,0,1-.816.813H5.313A3.533,3.533,0,0,1,5.818,2.8H7.4a.814.814,0,1,1,0,1.629H5.818a3.643,3.643,0,0,1-3.357,2.8l3.281,4.3a.794.794,0,0,1,.154.607.806.806,0,0,1-.318.533.867.867,0,0,1-.488.164A.828.828,0,0,1,4.443,12.52Z" transform="translate(75.17 33.354)" fill="#fff"/>
    </g>
  </g>
</svg>
