<?xml version="1.0" encoding="utf-8"?>
<!-- Generator: Adobe Illustrator 19.0.0, SVG Export Plug-In . SVG Version: 6.00 Build 0)  -->
<svg version="1.1" id="图层_1" xmlns="http://www.w3.org/2000/svg" xmlns:xlink="http://www.w3.org/1999/xlink" x="0px" y="0px"
	 viewBox="-295 387 20 20" style="enable-background:new -295 387 20 20;" xml:space="preserve">
<style type="text/css">
	.st0{fill:url(#SVGID_1_);}
	.st1{fill:url(#SVGID_2_);}
	.st2{fill:url(#SVGID_3_);}
	.st3{fill:url(#SVGID_4_);}
	.st4{fill:url(#SVGID_5_);}
	.st5{fill:url(#SVGID_6_);}
	.st6{fill:#FFFFFF;}
</style>
<g>
	
		<linearGradient id="SVGID_1_" gradientUnits="userSpaceOnUse" x1="-284.5758" y1="397.8889" x2="-290.4925" y2="390.8055" gradientTransform="matrix(1 0 0 1 0 4)">
		<stop  offset="0" style="stop-color:#AAB4BC"/>
		<stop  offset="1" style="stop-color:#D1D9DD"/>
	</linearGradient>
	<path class="st0" d="M-293.7,395.4l2.3,8h6.4v-11.7c0,0-2.1,3.8-4.3,4.2C-291.6,396.4-293.7,395.4-293.7,395.4z"/>
	
		<linearGradient id="SVGID_2_" gradientUnits="userSpaceOnUse" x1="-283.6951" y1="390.458" x2="-278.6117" y2="398.708" gradientTransform="matrix(1 0 0 1 0 4)">
		<stop  offset="0" style="stop-color:#AAB4BC"/>
		<stop  offset="1" style="stop-color:#D1D9DD"/>
	</linearGradient>
	<path class="st1" d="M-276.3,395.4l-2.3,8h-6.4v-11.7c0,0,2.1,3.8,4.3,4.2C-278.4,396.4-276.3,395.4-276.3,395.4z"/>
	
		<linearGradient id="SVGID_3_" gradientUnits="userSpaceOnUse" x1="-283.4987" y1="99.4844" x2="-285.7078" y2="105.0989" gradientTransform="matrix(1 0 0 -1 0 508)">
		<stop  offset="0" style="stop-color:#AAB4BC"/>
		<stop  offset="1" style="stop-color:#D1D9DD"/>
	</linearGradient>
	<rect x="-291.2" y="404" class="st2" width="12.4" height="1.4"/>
	<g>
		
			<linearGradient id="SVGID_4_" gradientUnits="userSpaceOnUse" x1="-286.1806" y1="118.2" x2="-283.8194" y2="118.2" gradientTransform="matrix(1 0 0 -1 0 508)">
			<stop  offset="0" style="stop-color:#AAB4BC"/>
			<stop  offset="1" style="stop-color:#D1D9DD"/>
		</linearGradient>
		<circle class="st3" cx="-285" cy="389.8" r="1.2"/>
		<g>
			
				<linearGradient id="SVGID_5_" gradientUnits="userSpaceOnUse" x1="-295" y1="114.1" x2="-293.6111" y2="114.1" gradientTransform="matrix(1 0 0 -1 0 508)">
				<stop  offset="0" style="stop-color:#AAB4BC"/>
				<stop  offset="1" style="stop-color:#D1D9DD"/>
			</linearGradient>
			<circle class="st4" cx="-294.3" cy="393.9" r="0.7"/>
			
				<linearGradient id="SVGID_6_" gradientUnits="userSpaceOnUse" x1="-276.3889" y1="114.1" x2="-275" y2="114.1" gradientTransform="matrix(1 0 0 -1 0 508)">
				<stop  offset="0" style="stop-color:#AAB4BC"/>
				<stop  offset="1" style="stop-color:#D1D9DD"/>
			</linearGradient>
			<circle class="st5" cx="-275.7" cy="393.9" r="0.7"/>
		</g>
	</g>
</g>
<g>
	<path class="st6" d="M-287.5,399c0-2.4,0.8-3.6,2.5-3.6c1.7,0,2.5,1.2,2.5,3.6s-0.8,3.6-2.5,3.6
		C-286.7,402.6-287.5,401.4-287.5,399z M-285.8,400.7c0.2,0.4,0.4,0.5,0.8,0.5c0.4,0,0.6-0.2,0.8-0.5c0.2-0.4,0.2-0.9,0.2-1.7
		c0-0.8-0.1-1.3-0.2-1.7c-0.2-0.4-0.4-0.5-0.8-0.5c-0.4,0-0.6,0.2-0.8,0.5c-0.2,0.4-0.2,0.9-0.2,1.7
		C-286,399.8-286,400.3-285.8,400.7z"/>
</g>
</svg>
