<?xml version="1.0" encoding="utf-8"?>
<!-- Generator: Adobe Illustrator 19.0.0, SVG Export Plug-In . SVG Version: 6.00 Build 0)  -->
<svg version="1.1" id="图层_1" xmlns="http://www.w3.org/2000/svg" xmlns:xlink="http://www.w3.org/1999/xlink" x="0px" y="0px"
	 viewBox="-295 387 20 20" style="enable-background:new -295 387 20 20;" xml:space="preserve">
<style type="text/css">
	.st0{fill:url(#SVGID_1_);}
	.st1{fill:url(#SVGID_2_);}
	.st2{fill:url(#SVGID_3_);}
	.st3{fill:url(#SVGID_4_);}
	.st4{fill:url(#SVGID_5_);}
	.st5{fill:url(#SVGID_6_);}
	.st6{fill:#FFFFFF;}
</style>
<g>
	<g>
		<g>
			
				<linearGradient id="SVGID_1_" gradientUnits="userSpaceOnUse" x1="-284.1997" y1="395.058" x2="-291.3664" y2="401.2245" gradientTransform="matrix(1 0 0 -1 0 796)">
				<stop  offset="0" style="stop-color:#D58C47"/>
				<stop  offset="1" style="stop-color:#EECBA9"/>
			</linearGradient>
			<path class="st0" d="M-293.7,395.4l2.3,8h6.4v-11.7c0,0-2.1,3.8-4.3,4.2C-291.6,396.4-293.7,395.4-293.7,395.4z"/>
			
				<linearGradient id="SVGID_2_" gradientUnits="userSpaceOnUse" x1="-283.6728" y1="401.5557" x2="-278.5894" y2="393.3057" gradientTransform="matrix(1 0 0 -1 0 796)">
				<stop  offset="0" style="stop-color:#D58C47"/>
				<stop  offset="1" style="stop-color:#EECBA9"/>
			</linearGradient>
			<path class="st1" d="M-276.3,395.4l-2.3,8h-6.4v-11.7c0,0,2.1,3.8,4.3,4.2C-278.4,396.4-276.3,395.4-276.3,395.4z"/>
		</g>
		
			<linearGradient id="SVGID_3_" gradientUnits="userSpaceOnUse" x1="-283.5157" y1="696.5223" x2="-285.7248" y2="690.9078" gradientTransform="matrix(1 0 0 1 0 -288)">
			<stop  offset="0" style="stop-color:#D58C47"/>
			<stop  offset="1" style="stop-color:#EECBA9"/>
		</linearGradient>
		<rect x="-291.2" y="404" class="st2" width="12.4" height="1.4"/>
	</g>
	<g>
		
			<linearGradient id="SVGID_4_" gradientUnits="userSpaceOnUse" x1="-286.1806" y1="677.75" x2="-283.8194" y2="677.75" gradientTransform="matrix(1 0 0 1 0 -288)">
			<stop  offset="0" style="stop-color:#D58C47"/>
			<stop  offset="1" style="stop-color:#EECBA9"/>
		</linearGradient>
		<circle class="st3" cx="-285" cy="389.8" r="1.2"/>
		<g>
			
				<linearGradient id="SVGID_5_" gradientUnits="userSpaceOnUse" x1="-295" y1="681.85" x2="-293.6111" y2="681.85" gradientTransform="matrix(1 0 0 1 0 -288)">
				<stop  offset="0" style="stop-color:#D58C47"/>
				<stop  offset="1" style="stop-color:#EECBA9"/>
			</linearGradient>
			<circle class="st4" cx="-294.3" cy="393.9" r="0.7"/>
			
				<linearGradient id="SVGID_6_" gradientUnits="userSpaceOnUse" x1="-276.3889" y1="681.85" x2="-275" y2="681.85" gradientTransform="matrix(1 0 0 1 0 -288)">
				<stop  offset="0" style="stop-color:#D58C47"/>
				<stop  offset="1" style="stop-color:#EECBA9"/>
			</linearGradient>
			<circle class="st5" cx="-275.7" cy="393.9" r="0.7"/>
		</g>
	</g>
</g>
<g>
	<path class="st6" d="M-285.6,397.2l-1.3,0.5v-1.5l1.7-1h1v7h-1.5V397.2z"/>
</g>
</svg>
