<?xml version="1.0" encoding="utf-8"?>
<!-- Generator: Adobe Illustrator 23.0.0, SVG Export Plug-In . SVG Version: 6.00 Build 0)  -->
<svg version="1.1" id="图层_1" xmlns="http://www.w3.org/2000/svg" xmlns:xlink="http://www.w3.org/1999/xlink" x="0px" y="0px"
	 viewBox="0 0 20 20" style="enable-background:new 0 0 20 20;" xml:space="preserve">
<style type="text/css">
	.st0{fill:url(#SVGID_1_);}
	.st1{fill:url(#SVGID_2_);}
	.st2{fill:url(#SVGID_3_);}
	.st3{fill:url(#SVGID_4_);}
	.st4{fill:url(#SVGID_5_);}
	.st5{fill:url(#SVGID_6_);}
	.st6{fill:#FFFFFF;}
</style>
<g>
	
		<linearGradient id="SVGID_1_" gradientUnits="userSpaceOnUse" x1="10.343" y1="1658.0353" x2="5.9055" y2="1648.6603" gradientTransform="matrix(1 0 0 1 0 -1640)">
		<stop  offset="2.131116e-07" style="stop-color:#FE7600"/>
		<stop  offset="1" style="stop-color:#FFB980"/>
	</linearGradient>
	<path class="st0" d="M1.3,8.4l2.3,8H10V4.7c0,0-2.1,3.8-4.3,4.2C3.4,9.4,1.3,8.4,1.3,8.4z"/>
	
		<linearGradient id="SVGID_2_" gradientUnits="userSpaceOnUse" x1="11.3049" y1="1647.458" x2="16.3883" y2="1655.708" gradientTransform="matrix(1 0 0 1 0 -1640)">
		<stop  offset="2.153458e-07" style="stop-color:#FE7600"/>
		<stop  offset="1" style="stop-color:#FFB980"/>
	</linearGradient>
	<path class="st1" d="M18.7,8.4l-2.3,8H10V4.7c0,0,2.1,3.8,4.3,4.2C16.6,9.4,18.7,8.4,18.7,8.4z"/>
	
		<linearGradient id="SVGID_3_" gradientUnits="userSpaceOnUse" x1="11.5013" y1="-287.5156" x2="9.2922" y2="-281.9011" gradientTransform="matrix(1 0 0 -1 0 -266)">
		<stop  offset="2.153458e-07" style="stop-color:#FE7600"/>
		<stop  offset="1" style="stop-color:#FFB980"/>
	</linearGradient>
	<rect x="3.8" y="17" class="st2" width="12.4" height="1.4"/>
	<g>
		
			<linearGradient id="SVGID_4_" gradientUnits="userSpaceOnUse" x1="8.8194" y1="-268.8" x2="11.1806" y2="-268.8" gradientTransform="matrix(1 0 0 -1 0 -266)">
			<stop  offset="2.153458e-07" style="stop-color:#FE7600"/>
			<stop  offset="1" style="stop-color:#FFB980"/>
		</linearGradient>
		<circle class="st3" cx="10" cy="2.8" r="1.2"/>
		<g>
			
				<linearGradient id="SVGID_5_" gradientUnits="userSpaceOnUse" x1="0" y1="-272.9" x2="1.3889" y2="-272.9" gradientTransform="matrix(1 0 0 -1 0 -266)">
				<stop  offset="2.153458e-07" style="stop-color:#FE7600"/>
				<stop  offset="1" style="stop-color:#FFB980"/>
			</linearGradient>
			<circle class="st4" cx="0.7" cy="6.9" r="0.7"/>
			
				<linearGradient id="SVGID_6_" gradientUnits="userSpaceOnUse" x1="18.6111" y1="-272.9" x2="20" y2="-272.9" gradientTransform="matrix(1 0 0 -1 0 -266)">
				<stop  offset="2.153458e-07" style="stop-color:#FE7600"/>
				<stop  offset="1" style="stop-color:#FFB980"/>
			</linearGradient>
			<circle class="st5" cx="19.3" cy="6.9" r="0.7"/>
		</g>
	</g>
</g>
<g>
	<path class="st6" d="M8,14.3c0.5-0.5,1-0.9,1.4-1.2c0.8-0.8,1.5-1.7,1.5-2.3c0-0.6-0.5-1-1.3-1c-0.5,0-1.2,0.2-1.8,0.6V9.2
		C8.4,8.8,9.3,8.5,10,8.5c1.5,0,2.4,0.8,2.4,2c0,0.4-0.1,0.9-0.4,1.4c-0.6,1-1.3,1.7-2.4,2.7l-0.3-0.2h3.2v1.2H7.7v-1L8,14.3z"/>
</g>
</svg>
