<?xml version="1.0" encoding="utf-8"?>
<!-- Generator: Adobe Illustrator 23.0.0, SVG Export Plug-In . SVG Version: 6.00 Build 0)  -->
<svg version="1.1" id="图层_1" xmlns="http://www.w3.org/2000/svg" xmlns:xlink="http://www.w3.org/1999/xlink" x="0px" y="0px"
	 viewBox="0 0 20 20" style="enable-background:new 0 0 20 20;" xml:space="preserve">
<style type="text/css">
	.st0{fill:url(#SVGID_1_);}
	.st1{fill:url(#SVGID_2_);}
	.st2{fill:url(#SVGID_3_);}
	.st3{fill:url(#SVGID_4_);}
	.st4{fill:url(#SVGID_5_);}
	.st5{fill:url(#SVGID_6_);}
	.st6{fill:#FFFFFF;}
</style>
<g>
	<g>
		<g>
			
				<linearGradient id="SVGID_1_" gradientUnits="userSpaceOnUse" x1="4.1282" y1="-272.7331" x2="11.4198" y2="-283.1499" gradientTransform="matrix(1 0 0 -1 0 -266)">
				<stop  offset="2.131116e-07" style="stop-color:#FEE257"/>
				<stop  offset="1" style="stop-color:#F9BA1B"/>
			</linearGradient>
			<path class="st0" d="M1.3,8.4l2.3,8H10V4.7c0,0-2.1,3.8-4.3,4.2C3.4,9.4,1.3,8.4,1.3,8.4z"/>
			
				<linearGradient id="SVGID_2_" gradientUnits="userSpaceOnUse" x1="16.847" y1="-284.7463" x2="11.8506" y2="-272.0472" gradientTransform="matrix(1 0 0 -1 0 -266)">
				<stop  offset="2.153458e-07" style="stop-color:#FFDE53"/>
				<stop  offset="1" style="stop-color:#F8BB1B"/>
			</linearGradient>
			<path class="st1" d="M18.7,8.4l-2.3,8H10V4.7c0,0,2.1,3.8,4.3,4.2C16.6,9.4,18.7,8.4,18.7,8.4z"/>
		</g>
		
			<linearGradient id="SVGID_3_" gradientUnits="userSpaceOnUse" x1="11.5013" y1="-287.5156" x2="9.2922" y2="-281.9011" gradientTransform="matrix(1 0 0 -1 0 -266)">
			<stop  offset="2.131116e-07" style="stop-color:#FEE257"/>
			<stop  offset="1" style="stop-color:#F9BA1B"/>
		</linearGradient>
		<rect x="3.8" y="17" class="st2" width="12.4" height="1.4"/>
	</g>
	<g>
		
			<linearGradient id="SVGID_4_" gradientUnits="userSpaceOnUse" x1="8.8194" y1="-268.8" x2="11.1806" y2="-268.8" gradientTransform="matrix(1 0 0 -1 0 -266)">
			<stop  offset="2.131116e-07" style="stop-color:#FEE257"/>
			<stop  offset="1" style="stop-color:#F9BA1B"/>
		</linearGradient>
		<circle class="st3" cx="10" cy="2.8" r="1.2"/>
		<g>
			
				<linearGradient id="SVGID_5_" gradientUnits="userSpaceOnUse" x1="0" y1="-272.9" x2="1.3889" y2="-272.9" gradientTransform="matrix(1 0 0 -1 0 -266)">
				<stop  offset="2.131116e-07" style="stop-color:#FEE257"/>
				<stop  offset="1" style="stop-color:#F9BA1B"/>
			</linearGradient>
			<circle class="st4" cx="0.7" cy="6.9" r="0.7"/>
			
				<linearGradient id="SVGID_6_" gradientUnits="userSpaceOnUse" x1="18.6111" y1="-272.9" x2="20" y2="-272.9" gradientTransform="matrix(1 0 0 -1 0 -266)">
				<stop  offset="2.131116e-07" style="stop-color:#FEE257"/>
				<stop  offset="1" style="stop-color:#F9BA1B"/>
			</linearGradient>
			<circle class="st5" cx="19.3" cy="6.9" r="0.7"/>
		</g>
	</g>
</g>
<g>
	<path class="st6" d="M7.7,15.2v-1.4c0.6,0.4,1.3,0.6,1.9,0.6c0.7,0,1.2-0.3,1.2-1s-0.5-1.1-1.3-1.1h-1v-1h0.9c0.8,0,1.3-0.4,1.3-1
		c0-0.5-0.4-0.8-1.1-0.8C9.1,9.5,8.5,9.6,8,9.9V8.8c0.5-0.3,1.2-0.4,1.9-0.4c1.4,0,2.3,0.7,2.3,1.8c0,0.7-0.4,1.3-1.1,1.6
		c0.8,0.3,1.2,0.9,1.2,1.7c0,1.2-1,2.1-2.5,2.1C9.1,15.6,8.4,15.5,7.7,15.2z"/>
</g>
</svg>
